<svg width="65" height="61" viewBox="0 0 65 61" fill="none" xmlns="http://www.w3.org/2000/svg">
<path opacity="0.5" d="M0.0155693 0.410504L15.6946 55.9541C15.7743 56.2062 16.0932 56.2819 16.2792 56.1054L26.7762 46.1464L18.9101 18.3115C18.8304 18.0594 19.0696 17.8325 19.3353 17.9081L48.6737 25.3711L59.1175 15.4625C59.3035 15.286 59.2238 14.9834 58.958 14.9078L0.440764 0.00710022C0.175018 -0.0433252 -0.0641545 0.183589 0.0155693 0.410504Z" fill="#30AAF0"/>
<path opacity="0.5" d="M26.7767 46.1459L30.8161 60.5171C30.8958 60.7693 31.2147 60.8449 31.4007 60.6684L63.9812 29.7828C64.1672 29.6063 64.0875 29.3038 63.8217 29.2282L48.6742 25.3706L26.7767 46.1459Z" fill="#30AAF0"/>
<path d="M18.9114 18.311L26.7775 46.1459L48.675 25.3706L19.3366 17.9076C19.0709 17.832 18.8317 18.0589 18.9114 18.311Z" fill="#30AAF0"/>
</svg>
